<svg height="32" viewBox="0 0 32 32" width="32" xmlns="http://www.w3.org/2000/svg"><title/><path d="M26 25h2.006C29.66 25 31 23.656 31 22v-9c0-1.657-1.34-3-2.994-3H26V3c0-1.105-.89-2-1.997-2H8.997C7.894 1 7 1.887 7 3v7H4.994C3.34 10 2 11.344 2 13v9c0 1.657 1.34 3 2.994 3H7v4c0 1.105.89 2 1.997 2h15.006C25.106 31 26 30.113 26 29v-4zM7 24H5.007C3.897 24 3 23.103 3 21.997v-8.994C3 11.893 3.9 11 5.007 11h22.986c1.11 0 2.007.897 2.007 2.003v8.994c0 1.11-.9 2.003-2.007 2.003H26v-3H7v3zM9 2c-.552 0-1 .453-1 .997V10h17V2.997c0-.55-.455-.997-1-.997H9zM8 22v7.003c0 .55.455.997 1 .997h15c.552 0 1-.453 1-.997V22H8zm17-6c.552 0 1-.448 1-1s-.448-1-1-1-1 .448-1 1 .448 1 1 1zM9 24v1h15v-1H9zm0 3v1h15v-1H9z" fill="#333" fill-rule="evenodd"/></svg>