<?xml version="1.0" encoding="utf-8"?>
<!-- Generator: Adobe Illustrator 17.0.0, SVG Export Plug-In . SVG Version: 6.00 Build 0)  -->
<!DOCTYPE svg PUBLIC "-//W3C//DTD SVG 1.1 Tiny//EN" "http://www.w3.org/Graphics/SVG/1.1/DTD/svg11-tiny.dtd">
<svg version="1.1" baseProfile="tiny" xmlns="http://www.w3.org/2000/svg" xmlns:xlink="http://www.w3.org/1999/xlink" x="0px"
	 y="0px" width="1240px" height="768px" viewBox="0 0 1240 768" xml:space="preserve">
<g id="Layer_1">
</g>
<g id="Layer_4">
	<g>
		<path d="M982.36,333c6.474,0,11.64,5.184,11.64,11.658v273.57c0,6.474-5.165,11.771-11.64,11.771H777.771
			c-6.474,0-11.771-5.297-11.771-11.771v-273.57c0-6.474,5.297-11.658,11.771-11.658H982 M982.36,330H777.771
			c-8.145,0-14.771,6.513-14.771,14.658v273.57c0,8.145,6.626,14.771,14.771,14.771H982.36c8.145,0,14.64-6.626,14.64-14.771
			v-273.57C997,336.513,990.505,330,982.36,330L982.36,330z"/>
		<path d="M970,361v240H791V361H970 M971,360H790v242h181V360L971,360z"/>
		<path d="M880.066,608.124c4.122,0,7.476,3.354,7.476,7.476s-3.354,7.476-7.476,7.476s-7.476-3.354-7.476-7.476
			S875.944,608.124,880.066,608.124 M880.066,607.124c-4.682,0-8.476,3.795-8.476,8.476c0,4.68,3.794,8.476,8.476,8.476
			c4.681,0,8.476-3.796,8.476-8.476C888.542,610.919,884.747,607.124,880.066,607.124L880.066,607.124z"/>
	</g>
	<g>
		<path d="M1152.432,443c6.474,0,11.568,5.129,11.568,11.604v163.625c0,6.474-5.094,11.771-11.568,11.771h-65.686
			c-6.474,0-11.746-5.297-11.746-11.771V454.604c0-6.474,5.272-11.604,11.746-11.604H1152 M1152.432,440h-65.686
			c-8.145,0-14.746,6.458-14.746,14.604v163.625c0,8.145,6.601,14.771,14.746,14.771h65.686c8.145,0,14.568-6.626,14.568-14.771
			V454.604C1167,446.458,1160.577,440,1152.432,440L1152.432,440z"/>
		<path d="M1156,470v131h-73V470H1156 M1157,469h-75v133h75V469L1157,469z"/>
		<path d="M1119.589,608.124c4.122,0,7.476,3.354,7.476,7.476s-3.354,7.476-7.476,7.476s-7.476-3.354-7.476-7.476
			S1115.467,608.124,1119.589,608.124 M1119.589,607.124c-4.682,0-8.476,3.795-8.476,8.476c0,4.68,3.794,8.476,8.476,8.476
			c4.681,0,8.476-3.796,8.476-8.476C1128.064,610.919,1124.27,607.124,1119.589,607.124L1119.589,607.124z"/>
	</g>
	<g>
		<path fill="none" stroke="#000000" stroke-width="3" stroke-miterlimit="10" d="M689.5,503.728c0,6.501-5.27,11.772-11.771,11.772
			H76.271c-6.501,0-11.771-5.27-11.771-11.772V147.272c0-6.501,5.27-11.772,11.771-11.772h601.457
			c6.501,0,11.771,5.27,11.771,11.772V503.728z"/>
		<rect x="90.5" y="161.5" fill="none" stroke="#000000" stroke-miterlimit="10" width="574" height="324"/>
		
			<line fill="none" stroke="#000000" stroke-width="3" stroke-linecap="round" stroke-miterlimit="10" x1="306.434" y1="616.346" x2="315.852" y2="516.053"/>
		<path fill="none" stroke="#000000" stroke-width="3" stroke-linecap="round" stroke-miterlimit="10" d="M353.638,616.346h-63.213
			c-2.59,0-4.826,2.119-4.826,4.709V630h183.636v-8.945c0-2.59-2.002-4.709-4.592-4.709h-16.009l-7.064-100.293"/>
	</g>
</g>
<g id="ART">
	<g>
		<path d="M428.789,257.441L314.75,371.481l-2.876,2.765c-0.603,0.58-1.388,1.672-1.746,2.427l-9.753,20.59l3.642,3.642
			l20.589-9.753c0.755-0.357,1.849-1.144,2.429-1.746l2.922-3.035l113.881-113.88L428.789,257.441z M322.494,374.854
			c-0.298,0.297-0.686,0.445-1.075,0.445c-0.389,0-0.777-0.148-1.074-0.445c-0.595-0.593-0.595-1.556,0-2.149l106.403-106.402
			c0.594-0.594,1.556-0.594,2.15,0c0.594,0.593,0.594,1.557,0,2.149L322.494,374.854z"/>
		<path d="M299.684,398.721l-1.935,4.086c-0.358,0.756-0.032,1.081,0.724,0.724l4.085-1.936L299.684,398.721z"/>
		<path d="M455.107,246.172c-4.154-4.155-10.893-4.155-15.048,0l-6.97,6.971l15.047,15.048l6.971-6.971
			C459.262,257.065,459.262,250.326,455.107,246.172z M452.067,251.73c-0.593,0.595-1.557,0.595-2.15,0
			c-0.573-0.574-1.336-0.891-2.149-0.891c-0.811,0-1.575,0.316-2.148,0.891l-3.041,3.041c-0.297,0.297-0.686,0.445-1.075,0.445
			c-0.389,0-0.777-0.148-1.074-0.445c-0.594-0.594-0.594-1.556,0-2.149l3.04-3.041c1.147-1.148,2.675-1.78,4.299-1.78
			c1.624,0,3.151,0.632,4.301,1.78C452.661,250.175,452.661,251.138,452.067,251.73z"/>
	</g>
	<g>
		<path d="M1119.285,532.44l-10.527,10.529l-0.021,7.693h7.674l10.55-10.551L1119.285,532.44z M1115.255,547.948h-3.837v-3.857
			c1.06-1.058,2.777-1.058,3.837,0C1116.314,545.151,1116.314,546.889,1115.255,547.948z"/>
		<path d="M1128.876,538.194c2.094-2.121,2.085-5.536-0.024-7.646c-2.106-2.11-5.527-2.117-7.646-0.025L1128.876,538.194z"/>
	</g>
	<g>
		<path d="M851.765,502.392l-6.085,12.845c-0.19,0.398-0.017,0.571,0.382,0.382l12.845-6.085L851.765,502.392z"/>
		<polygon points="862.147,507.12 862.705,506.541 907.699,461.548 899.749,453.601 854.653,498.695 854.179,499.151 		"/>
		<path d="M913.93,447.368c-2.195-2.195-5.754-2.195-7.949,0l-3.404,3.404l7.949,7.949l3.404-3.404
			C916.125,453.122,916.125,449.564,913.93,447.368z"/>
	</g>
</g>
</svg>
